<?xml version="1.0" standalone="no"?><!DOCTYPE svg PUBLIC "-//W3C//DTD SVG 1.1//EN" "http://www.w3.org/Graphics/SVG/1.1/DTD/svg11.dtd"><svg t="1586851368054" class="icon" viewBox="0 0 1024 1024" version="1.1" xmlns="http://www.w3.org/2000/svg" p-id="3357" width="22" height="22" xmlns:xlink="http://www.w3.org/1999/xlink"><defs><style type="text/css"></style></defs><path d="M512 146.285714c80.457143 0 146.285714 65.828571 146.285714 146.285715s-65.828571 146.285714-146.285714 146.285714-146.285714-65.828571-146.285714-146.285714 65.828571-146.285714 146.285714-146.285715m0-73.142857C387.657143 73.142857 292.571429 168.228571 292.571429 292.571429s95.085714 219.428571 219.428571 219.428571 219.428571-95.085714 219.428571-219.428571-95.085714-219.428571-219.428571-219.428572zM950.857143 1024h-65.828572c0-204.8-168.228571-373.028571-373.028571-373.028571S138.971429 819.2 138.971429 1024H73.142857c0-241.371429 197.485714-438.857143 438.857143-438.857143s438.857143 197.485714 438.857143 438.857143z" p-id="3358" fill="#e6e6e6"></path></svg>