<?xml version="1.0" standalone="no"?><!DOCTYPE svg PUBLIC "-//W3C//DTD SVG 1.1//EN" "http://www.w3.org/Graphics/SVG/1.1/DTD/svg11.dtd"><svg t="1586797517344" class="icon" viewBox="0 0 1026 1024" version="1.1" xmlns="http://www.w3.org/2000/svg" p-id="7158" width="24.046875" height="24" xmlns:xlink="http://www.w3.org/1999/xlink"><defs><style type="text/css"></style></defs><path d="M392.169 373.756 151.421 373.756c-7.911 0-14.279 6.389-14.279 14.28 0 7.851 6.368 14.24 14.279 14.24L392.17 402.276c7.851 0 14.24-6.388 14.24-14.24C406.409 380.146 400.021 373.756 392.169 373.756zM392.169 491.098 151.421 491.098c-7.911 0-14.279 6.408-14.279 14.278 0 7.892 6.368 14.261 14.279 14.261L392.17 519.637c7.851 0 14.24-6.368 14.24-14.261C406.409 497.505 400.021 491.098 392.169 491.098zM392.169 608.479 151.421 608.479c-7.911 0-14.279 6.406-14.279 14.276 0 7.873 6.368 14.261 14.279 14.261L392.17 637.016c7.851 0 14.24-6.388 14.24-14.261C406.409 614.885 400.021 608.479 392.169 608.479zM618.357 388.036c0 7.851 6.367 14.24 14.24 14.24l240.746 0c7.892 0 14.261-6.388 14.261-14.24 0-7.89-6.367-14.28-14.261-14.28L632.599 373.756C624.728 373.756 618.357 380.146 618.357 388.036zM873.347 491.098 632.599 491.098c-7.872 0-14.24 6.408-14.24 14.278 0 7.892 6.368 14.261 14.24 14.261l240.748 0c7.89 0 14.259-6.368 14.259-14.261C887.604 497.505 881.237 491.098 873.347 491.098zM873.347 608.479 632.599 608.479c-7.872 0-14.24 6.406-14.24 14.276 0 7.873 6.368 14.261 14.24 14.261l240.748 0c7.89 0 14.259-6.388 14.259-14.261C887.604 614.885 881.237 608.479 873.347 608.479zM751.301 132.346c-88.362 0-187.057 13.519-238.526 48.247-51.472-34.728-150.145-48.247-238.526-48.247-126.493 0-274.174 27.64-274.174 105.605l0 622.81c0 10.554 4.645 20.487 12.696 27.258 8.051 6.77 18.666 9.652 29.039 7.849 70.136-12.133 150.486-18.545 232.437-18.545 81.953 0 162.302 6.41 232.439 18.545 0.96 0.182 1.901 0.182 2.863 0.282 0.76 0.06 1.5 0.119 2.262 0.141 0.319 0.039 0.643 0.099 0.963 0.099 1.902 0 3.805-0.16 5.688-0.5 0.119-0.022 0.238 0 0.399-0.022 70.139-12.133 150.488-18.545 232.441-18.545 81.949 0 162.32 6.41 232.437 18.545 2.025 0.361 4.084 0.521 6.087 0.521 8.331 0 16.463-2.903 22.949-8.37 8.054-6.771 12.699-16.702 12.699-27.258L1025.474 237.951C1025.474 159.984 877.791 132.346 751.301 132.346zM71.371 819.203 71.371 242.457c14.418-14.121 85.636-38.813 202.876-38.813 117.221 0 188.458 24.693 202.876 38.813l0 576.747c-63.406-8.67-132.659-13.198-202.876-13.198C204.032 806.005 134.758 810.533 71.371 819.203zM954.177 819.203c-126.792-17.304-279.001-17.304-405.755 0L548.422 242.457c14.419-14.121 85.639-38.813 202.879-38.813 117.239 0 188.455 24.693 202.875 38.813L954.177 819.203 954.177 819.203z" p-id="7159"></path></svg>