<?xml version="1.0" standalone="no"?><!DOCTYPE svg PUBLIC "-//W3C//DTD SVG 1.1//EN" "http://www.w3.org/Graphics/SVG/1.1/DTD/svg11.dtd"><svg t="1586798275253" class="icon" viewBox="0 0 1024 1024" version="1.1" xmlns="http://www.w3.org/2000/svg" p-id="15556" width="34" height="34" xmlns:xlink="http://www.w3.org/1999/xlink"><defs><style type="text/css"></style></defs><path d="M1012 262.3v-58.9h-32.5v616.8c-150.7 24.5-288.3 46.7-424.6 68.9 0.2 0.5 15.7 32.8 26 33l384.5-0.1c16.8-0.9 44.6-46.5 46.5-73.4V262.3z" fill="" p-id="15557"></path><path d="M684 128.8c-98.2 17.8-152.4 65.5-147.8 182.2l0.1 540.2c189.9-73.2 388.8-57.7 388.8-57.7l-0.3-53.3s0.3-413.5 0.3-638.1c-88 9.2-165.5 13.1-241.1 26.7zM60.2 921.9l382.6 0.1c10.4-0.3 25.9-33 25.9-33.1-136.3-22.1-272-44.3-422.7-68.9V203.5H12v643.3c0.8 26.6 31.1 74.3 48.2 75.1zM468.7 889z" fill="" p-id="15558"></path><path d="M490.7 851.1l0.1-540.2c4.7-116.7-49.7-164.4-147.8-182.2-75.6-13.6-153-17.4-241.1-26.8 0 224.5 0.3 638 0.3 638l-0.4 53.3c0.1 0.2 199-15.3 388.9 57.9zM554.9 889v-0.1z" fill="" p-id="15559"></path></svg>