<?xml version="1.0" standalone="no"?><!DOCTYPE svg PUBLIC "-//W3C//DTD SVG 1.1//EN" "http://www.w3.org/Graphics/SVG/1.1/DTD/svg11.dtd"><svg t="1586797388236" class="icon" viewBox="0 0 1024 1024" version="1.1" xmlns="http://www.w3.org/2000/svg" p-id="5128" width="24" height="24" xmlns:xlink="http://www.w3.org/1999/xlink"><defs><style type="text/css"></style></defs><path d="M256 51.2a51.2 51.2 0 0 0-51.2 51.2v868.1984L452.5056 793.6a102.4 102.4 0 0 1 118.9888 0L819.2 970.5984V102.4a51.2 51.2 0 0 0-51.2-51.2H256z m0-51.2h512a102.4 102.4 0 0 1 102.4 102.4v868.1984a51.2 51.2 0 0 1-80.9472 41.6768l-247.7056-176.9472a51.2 51.2 0 0 0-59.4944 0L234.496 1012.2752A51.2 51.2 0 0 1 153.6 970.5984V102.4a102.4 102.4 0 0 1 102.4-102.4z" fill="#000000" p-id="5129"></path></svg>