<?xml version="1.0" standalone="no"?><!DOCTYPE svg PUBLIC "-//W3C//DTD SVG 1.1//EN" "http://www.w3.org/Graphics/SVG/1.1/DTD/svg11.dtd"><svg t="1587820324351" class="icon" viewBox="0 0 1024 1024" version="1.1" xmlns="http://www.w3.org/2000/svg" p-id="1349" width="28" height="28" xmlns:xlink="http://www.w3.org/1999/xlink"><defs><style type="text/css"></style></defs><path d="M896 153.6H128C84.48 153.6 51.2 186.88 51.2 230.4v563.2c0 43.52 33.28 76.8 76.8 76.8h768c43.52 0 76.8-33.28 76.8-76.8V230.4c0-43.52-33.28-76.8-76.8-76.8z m25.6 611.84l-253.44-268.8L921.6 243.2v522.24z m-819.2 0V248.32l248.32 248.32L102.4 765.44zM130.56 204.8h755.2L560.64 529.92c-28.16 28.16-76.8 28.16-104.96 0L130.56 204.8zM128 819.2h-5.12l266.24-284.16 30.72 30.72c25.6 25.6 56.32 35.84 89.6 35.84s64-12.8 89.6-35.84l35.84-35.84L901.12 819.2H128z" fill="" p-id="1350"></path></svg>