<?xml version="1.0" standalone="no"?><!DOCTYPE svg PUBLIC "-//W3C//DTD SVG 1.1//EN" "http://www.w3.org/Graphics/SVG/1.1/DTD/svg11.dtd"><svg t="1586798124433" class="icon" viewBox="0 0 1024 1024" version="1.1" xmlns="http://www.w3.org/2000/svg" p-id="13974" width="34" height="34" xmlns:xlink="http://www.w3.org/1999/xlink"><defs><style type="text/css"></style></defs><path d="M349.010747 494.448485c11.816081 29.699879 40.877253 115.987394 159.197091 117.925495 111.475071-5.413495 96.222384-35.723636 165.092848-117.925495 31.59402-16.835232 50.536727-32.849455 64.858505-82.545778 5.395394-25.214707 1.773899-49.013657-35.377131-70.754263 0-23.585616 0.839111-47.169939-5.897051-70.754263-32.360727-80.945131-84.48-134.765899-194.574222-135.612768-147.134061 6.782707-185.580606 100.477414-182.781414 206.36703C303.996121 355.600808 226.015677 399.753051 349.010747 494.448485zM696.886303 376.525576c13.756768 3.366788 21.057939 10.386101 11.791515 47.168646-9.828848 16.283152-19.649939 21.621657-23.584323 23.584323C687.057455 429.591273 694.923636 394.212848 696.886303 376.525576zM508.207838 553.409939c-73.281939-0.673616-110.339879-73.165576-106.130101-117.924202 49.437737 34.825051 95.720727 12.06303 106.130101-35.375838 1.86699 3.10303 31.548768 85.621657 117.924202 35.375838C609.193374 519.310222 563.337051 550.725818 508.207838 553.409939zM413.870545 382.42004c27.09204-19.075879 66.384162-1.43903 64.858505 11.792808C478.480808 417.550222 424.926384 452.805818 413.870545 382.42004zM602.54901 382.42004c7.368404 8.59798-13.883475 70.507313-58.962747 23.584323C532.530424 380.262141 578.474667 364.929293 602.54901 382.42004zM384.389172 335.251394c29.480081-16.268929 47.497051-39.367111 55.126626-67.91499 92.118626 63.118222 186.754586 48.753778 198.410343 38.433616 11.124364 25.709899 6.207354 55.720081 0 64.858505-28.047515-25.980121-68.256323-38.083232-112.027152-11.792808-5.086384-0.17196-5.668202-5.895758-11.792808-5.895758-6.375434 0-12.403071 5.723798-17.689859 5.895758-64.143515-29.711515-84.998465-8.366545-112.027152 11.792808C381.032727 359.072323 380.70303 349.993374 384.389172 335.251394zM319.530667 376.525576c10.951111 16 10.951111 49.696323 11.792808 64.857212C316.145778 427.955717 295.652848 398.04897 319.530667 376.525576zM661.510465 576.995556c-15.138909 6.85899-18.21996 103.205495-35.377131 153.30004-30.603636 52.218828-47.445333 70.098747-70.755556 82.548364-23.751111-33.247677-13.904162-49.974303 17.689859-106.132687-20.498101-36.39596-104.300606-42.101657-117.924202 0 7.566222 52.71402 41.526303 30.184727 11.792808 106.132687-72.349737-60.461253-76.955152-106.604606-100.234343-229.952646-9.82497-1.96396-24.097616-11.049374-41.274182-5.897051-50.958222 18.413899-80.584404 34.391919-123.81996 70.755556-36.039111 43.121778-85.125172 151.699394-64.858505 182.780121 70.138828 99.693899 653.549899 84.057212 754.712566 0C890.608485 691.223273 775.488646 577.214061 661.510465 576.995556zM254.673455 812.84396c-7.859717 0 3.933091 11.791515-58.962747-11.792808-0.051717-27.110141 14.113616-81.612283 70.754263-135.614061C283.951838 672.35297 251.408808 736.532687 254.673455 812.84396zM767.641859 812.84396c-3.649939-46.041212-12.806465-102.809859-23.584323-147.406869 64.016808 28.342303 87.601131 125.518869 76.65002 135.614061C804.986828 804.982949 785.047273 813.964929 767.641859 812.84396z" p-id="13975"></path></svg>