<?xml version="1.0" standalone="no"?><!DOCTYPE svg PUBLIC "-//W3C//DTD SVG 1.1//EN" "http://www.w3.org/Graphics/SVG/1.1/DTD/svg11.dtd"><svg t="1586852232739" class="icon" viewBox="0 0 1024 1024" version="1.1" xmlns="http://www.w3.org/2000/svg" p-id="4190" width="32" height="32" xmlns:xlink="http://www.w3.org/1999/xlink"><defs><style type="text/css"></style></defs><path d="M336 972.8c-60.8-128-28.8-201.6 19.2-268.8 51.2-76.8 64-150.4 64-150.4s41.6 51.2 25.6 134.4c70.4-80 83.2-208 73.6-256 160 112 230.4 358.4 137.6 537.6C1148.8 688 777.6 268.8 713.6 224c22.4 48 25.6 128-19.2 166.4-73.6-281.6-256-336-256-336 22.4 144-76.8 300.8-172.8 419.2-3.2-57.6-6.4-96-38.4-153.6-6.4 105.6-86.4 188.8-108.8 294.4-28.8 144 22.4 246.4 217.6 358.4z" fill="#D81E06" p-id="4191"></path></svg>