<?xml version="1.0" standalone="no"?><!DOCTYPE svg PUBLIC "-//W3C//DTD SVG 1.1//EN" "http://www.w3.org/Graphics/SVG/1.1/DTD/svg11.dtd"><svg t="1586189356957" class="icon" viewBox="0 0 1024 1024" version="1.1" xmlns="http://www.w3.org/2000/svg" p-id="6376" width="18" height="18" xmlns:xlink="http://www.w3.org/1999/xlink"><defs><style type="text/css"></style></defs><path d="M245.327922 241.064585c36.131382-50.533984 79.68052-92.642862 128.857496-126.959349 51.749463-36.131382 106.820683-61.773008 161.933528-78.922927a541.937431 541.937431 0 0 1 54.172098-13.944716 316.490927 316.490927 0 0 1 24.018211-4.012747l141.470179-16.650407-54.921366 131.421659c-1.024 2.46426-3.446634 9.42413-6.069073 19.497626-7.384455 28.380618-9.540683 57.319024-4.170927 81.337235 0.890797 3.962797 1.973073 7.750764 3.24683 11.363903 3.030374 7.950569 5.661138 13.678309 8.175349 18.148943 2.131252 3.787967 4.345756 6.993171 8.366829 12.171447 1.406959 1.798244 8.316878 10.46478 10.348228 13.062244 5.278179 6.743415 9.906992 12.937366 14.693984 19.830634 11.771837 16.925138 23.177366 36.148033 35.606894 60.632455a311.237724 311.237724 0 0 1 89.595838-43.915447 277.645528 277.645528 0 0 1 36.506016-8.508358 180.03252 180.03252 0 0 1 18.44865-2.106276l75.850927-4.037724 10.947642 75.176586c0.765919 5.228228 1.748293 13.661659 2.664065 24.917333 7.209626 87.514537 0.299707 186.026667-32.235187 281.758179C904.767272 891.604293 742.117776 1015.674797 477.800898 1015.674797c-266.273301 0-417.742049-117.993106-458.610472-308.998244-16.425626-76.766699-13.187122-156.080911 1.773268-231.831935 2.755642-13.969691 5.736065-26.723902 8.758114-38.09613a429.538862 429.538862 0 0 1 4.07935-14.377626l48.319479-150.586277 87.581139 110.999935c17.924163-48.103024 42.79987-95.698211 75.626146-141.719935zM920.019044 396.645984s-82.277984 4.370732-147.414374 82.419512C742.800442 514.738992 680.752702 602.71974 680.752702 602.71974s58.684358-110.974959 16.567155-196.016911c-41.934049-83.077203-58.442927-72.429268-81.553691-133.694439-29.720976-82.119805 8.283577-173.097626 8.283577-173.097626S432.495141 122.455415 313.045125 289.483967C207.298393 437.772488 217.663272 577.985561 217.663272 577.985561L113.606556 446.097691S-42.474354 932.422764 477.800898 932.422764c520.266927 0 442.226472-535.77678 442.226471-535.77678zM349.567792 674.907577c18.723382-23.643577 149.853659-199.804878 149.853658-199.804878s66.601626 208.130081 124.878049 299.707317 5.178276 232.689431-141.528455 241.430895c-80.920976 4.337431-137.141073-41.351285-166.504065-108.227643-5.810992-19.730732-16.650407-37.188683-16.650407-58.276422 0-58.276423 11.880065-118.792325 49.95122-174.829269z m67.434146 48.92722c-23.310569 35.273886-33.825301 75.451317-34.133333 123.770796 0.474537 1.565138 1.340358 3.996098 2.955447 8.133724 0.349659 0.915772 0.666016 1.706667 1.415285 3.604813 3.163577 8.075447 5.178276 13.445203 7.001496 19.05639 18.232195 38.853724 45.47226 56.777886 83.576715 54.738212 73.619772-4.387382 105.671805-67.384195 76.242211-113.630699a548.098081 548.098081 0 0 1-23.202341-40.585366c-14.985366-28.730276-30.386992-62.788683-46.121626-101.234472-3.829593-9.357528-7.634211-18.864911-11.405529-28.472195-28.289041 37.779772-47.720065 63.537951-56.33665 74.618797z" fill="#707070" p-id="6377"></path></svg>