<?xml version="1.0" standalone="no"?><!DOCTYPE svg PUBLIC "-//W3C//DTD SVG 1.1//EN" "http://www.w3.org/Graphics/SVG/1.1/DTD/svg11.dtd"><svg t="1585830446036" class="icon" viewBox="0 0 1024 1024" version="1.1" xmlns="http://www.w3.org/2000/svg" p-id="4920" width="32" height="32" xmlns:xlink="http://www.w3.org/1999/xlink"><defs><style type="text/css"></style></defs><path d="M860.1 125.8l-213-61.6-279.9 119.5-194.6-58h-4.1c-31.8 0-57.7 25.9-57.7 57.7v657.2c0 30.3 23.4 55.2 53.1 57.6l211.3 61.6 273.6-119.5 202.9 58.1h3.9c31.8 0 57.8-25.9 57.8-57.7V183.4c-0.1-30.3-23.6-55.3-53.3-57.6zM396.7 231.7l224.9-96v655.5l-224 97.9V231.7h-0.9zM168.5 842.6c-1.1 0-2-0.9-2-2V183.4c0-0.5 0.2-0.9 0.4-1.2l170.8 50.9v657.7l-165.3-48.2h-3.9z m689-2c0 0.5-0.2 1-0.5 1.3l-175.8-50.3V132.1l170.3 49.2h3.9c1.1 0 2 0.9 2 2v657.3z" p-id="4921"></path></svg>