<?xml version="1.0" standalone="no"?><!DOCTYPE svg PUBLIC "-//W3C//DTD SVG 1.1//EN" "http://www.w3.org/Graphics/SVG/1.1/DTD/svg11.dtd"><svg t="1585834372046" class="icon" viewBox="0 0 1024 1024" version="1.1" xmlns="http://www.w3.org/2000/svg" p-id="16026" width="16" height="16" xmlns:xlink="http://www.w3.org/1999/xlink"><defs><style type="text/css"></style></defs><path d="M821.1 337.9H621.4c-0.1 0-0.2-0.1-0.2-0.2V235c0-76.1-61.9-138-138-138-36.4 0-69.8 12.5-96.7 36.3-25.6 22.6-43.9 54.3-53 91.8l-74.7 274.4c-0.4 1.4-0.7 2.9-0.9 4.3H144.7c-44.1 0-80 35.9-80 80V847c0 44.1 35.9 80 80 80h192.6v-0.3h433.4c25 0 47.2-10.1 64.4-29.3 12.3-13.7 21.6-32.2 26.9-53.3l95.9-357.7c0.9-3.4 1.4-6.9 1.4-10.4 0-76.1-62-138.1-138.2-138.1zM257.3 847H144.8s-0.1 0-0.1-0.1v-263s0-0.1 0.1-0.1h112.6V847z m527.4-23.3c-0.1 0.2-0.1 0.4-0.2 0.6-2.8 11.1-8.4 22.3-13.8 22.3H338.3c-0.5 0-1-0.5-1-1V515.4l73.4-269.8 0.3-1.2c10.1-42.2 37.1-67.3 72.1-67.3 32 0 58 26 58 58v102.6c0 44.3 36 80.3 80.3 80.3h199.5c30.6 0 55.7 23.7 58.1 53.6l-94.3 352.1z" p-id="16027" fill="#707070"></path></svg>