<?xml version="1.0" standalone="no"?><!DOCTYPE svg PUBLIC "-//W3C//DTD SVG 1.1//EN" "http://www.w3.org/Graphics/SVG/1.1/DTD/svg11.dtd"><svg t="1586790896037" class="icon" viewBox="0 0 1024 1024" version="1.1" xmlns="http://www.w3.org/2000/svg" p-id="1238" width="16" height="16" xmlns:xlink="http://www.w3.org/1999/xlink"><defs><style type="text/css"></style></defs><path d="M289.3 831.27H174.43c-17.67 0-32-14.33-32-32v-464.3c0-17.67 14.33-32 32-32H289.3c17.67 0 32 14.33 32 32v464.3c0 17.67-14.32 32-32 32z m-82.87-64h50.87v-400.3h-50.87v400.3zM807.92 831.36H395.01c-17.67 0-32-14.33-32-32V335.03c0-9.18 3.86-17.46 10.06-23.29 0.1-0.1 0.2-0.19 0.3-0.29l180.22-174.34c12.41-12 32.09-12 44.5 0l110.34 106.74c6.23 6.03 9.75 14.33 9.75 23s-3.52 16.97-9.75 23l-13.63 13.19h201.24c9.53 0 18.57 4.25 24.65 11.59a31.99 31.99 0 0 1 6.79 26.38l-88.11 464.33c-2.88 15.09-16.08 26.02-31.45 26.02z m-380.91-64h354.41l75.97-400.33H615.68c-13.04 0-24.77-7.91-29.67-20a31.988 31.988 0 0 1 7.42-35l46.71-45.19-64.31-62.21L427.01 348.6v418.76z" p-id="1239" fill="#27859a"></path></svg>