<?xml version="1.0" standalone="no"?><!DOCTYPE svg PUBLIC "-//W3C//DTD SVG 1.1//EN" "http://www.w3.org/Graphics/SVG/1.1/DTD/svg11.dtd"><svg t="1586798053760" class="icon" viewBox="0 0 1024 1024" version="1.1" xmlns="http://www.w3.org/2000/svg" p-id="10423" width="24" height="24" xmlns:xlink="http://www.w3.org/1999/xlink"><defs><style type="text/css"></style></defs><path d="M504.14253 974.868231C233.014641 974.868231 12.463574 769.49021 12.463574 516.967366S233.014641 59.066502 504.14253 59.066502s491.678956 205.378021 491.678955 457.900864c0 85.25807-24.927148 167.264773-72.252602 239.156113 42.809667 35.945669 95.012171 80.38102 91.580173 135.292997-1.445052 22.75957-11.018522 42.087141-27.997883 55.815135-46.78356 38.113247-138.00247 25.288411-226.331275 12.644205-34.86188-4.877051-73.878285-10.476627-94.470277-9.212207l-1.806315 1.806315h-8.489681c-48.951138 14.992415-99.889222 22.398307-151.911095 22.398307z m0-850.774387C268.96031 124.093844 77.671547 300.390192 77.671547 516.967366s191.288763 392.873523 426.470983 392.873523c44.615982 0 88.509437-6.322103 130.415946-18.605045l0.903157-0.722526 10.837891-2.709473h1.625683c28.539778-5.238314 70.085024 0.541895 122.287529 7.947787 60.330923 8.489681 151.369201 21.495149 175.935085 1.26442 1.986947-1.625684 3.793262-3.61263 4.154525-9.392838 1.445052-22.940201-43.351561-60.511554-70.265655-82.909861-7.767155-6.502734-15.173046-12.644205-21.856412-18.605045L835.601341 765.87758l18.243782-23.843359c50.215558-66.111131 76.949021-143.963309 76.949021-225.066855-0.180632-216.577174-191.469395-392.873523-426.651614-392.873522z" p-id="10424"></path><path d="M755.581584 476.144646H272.031046c-49.312401 0-49.312401-71.349444 0-71.349444h483.73117c49.131769 0 49.131769 71.349444-0.180632 71.349444zM755.581584 629.139531H485.898748c-43.893456 0-43.893456-65.027342 0-65.027342h269.682836c36.306932 0 36.306932 65.027342 0 65.027342z" p-id="10425"></path></svg>