<?xml version="1.0" standalone="no"?><!DOCTYPE svg PUBLIC "-//W3C//DTD SVG 1.1//EN" "http://www.w3.org/Graphics/SVG/1.1/DTD/svg11.dtd"><svg t="1586192523730" class="icon" viewBox="0 0 1024 1024" version="1.1" xmlns="http://www.w3.org/2000/svg" p-id="2443" width="20" height="20" xmlns:xlink="http://www.w3.org/1999/xlink"><defs><style type="text/css"></style></defs><path d="M513.371742 994.558457c-66.332754 0-130.691551-12.994965-191.287651-38.625716-58.519812-24.75173-111.072725-60.182684-156.197458-105.307418-45.125757-45.125757-80.555687-97.677647-105.308441-156.198481C34.949488 633.831766 21.9535 569.471946 21.9535 503.139192s12.995989-130.691551 38.625716-191.287651c24.75173-58.520835 60.182684-111.072725 105.308441-156.198481 45.124733-45.125757 97.677647-80.555687 156.197458-105.308441 60.5961-25.629727 124.954897-38.625716 191.287651-38.625716s130.692574 12.995989 191.288674 38.625716c58.520835 24.75173 111.072725 60.182684 156.198481 105.308441s80.556711 97.677647 105.307418 156.198481c25.63075 60.5961 38.625716 124.954897 38.625716 191.287651s-12.994965 130.692574-38.625716 191.288674c-24.75173 58.520835-60.182684 111.072725-105.307418 156.198481s-97.677647 80.556711-156.198481 105.307418C644.064316 981.563492 579.70552 994.558457 513.371742 994.558457zM513.371742 47.535643c-251.220648 0-455.603549 204.3829-455.603549 455.603549s204.3829 455.604572 455.603549 455.604572c251.220648 0 455.604572-204.383924 455.604572-455.604572S764.59239 47.535643 513.371742 47.535643z" p-id="2444" fill="#707070"></path><path d="M114.031615 637.46041l3.1262-32.822546 6.095835-111.285572 1.719154-44.858674 0-24.382317c16.177448 0.209778 30.473035 0.313132 42.893926 0.313132 8.870018 0 21.340027-0.103354 37.415145-0.313132l66.720587 121.335463 9.196453 17.825994c1.174756-17.510816 2.376117-42.059931 3.607154-73.6453 1.228991-31.584346 1.843998-53.422723 1.843998-65.516156 12.802584 0.209778 23.057135 0.313132 30.759561 0.313132 3.538593 0 13.739932-0.103354 30.602995-0.313132l-3.751441 46.576805-7.034207 129.417535-0.937348 37.355793c-13.557784-0.207731-26.227338-0.312108-38.008662-0.312108-9.803273 0-23.356964 0.104377-40.665165 0.312108-5.412266-10.213619-9.419534-17.616216-12.020778-22.203698l-26.224268-44.562938c-8.637728-14.59337-16.600073-28.561499-23.88192-41.905412-4.787026-8.442276-9.729595-17.720593-14.82873-27.831882l-3.363607 74.114998-1.601474 62.388932c-12.906961-0.207731-22.741957-0.312108-29.506011-0.312108C140.46566 637.149325 129.747551 637.252679 114.031615 637.46041z" p-id="2445" fill="#707070"></path><path d="M376.459512 637.46041c2.611477-26.8843 4.51892-49.390897 5.720282-67.520813 1.201361-18.131963 2.402723-42.22673 3.604084-72.28942 1.201361-30.060643 1.803066-49.989531 1.803066-59.784618l-0.156566-13.754259c24.585955 0.209778 54.329373 0.313132 89.233324 0.313132 32.193213 0 60.581774-0.103354 85.168752-0.313132l-0.312108 5.140067c-0.105401 1.245364-0.366344 5.763261-0.782829 13.551644l-0.937348 16.980743c-0.210801 3.63683-0.312108 7.324826-0.312108 11.060917-20.11206-0.831948-36.991496-1.25048-50.641377-1.25048-15.004739 0-25.139563 0.026606-30.400381 0.077771-5.262864 0.054235-13.468756 0.288572-24.617677 0.704035l-1.898233 35.948747c12.299117 0.313132 26.630521 0.468674 42.993187 0.468674 5.836939 0 21.366633-0.363274 46.590108-1.093914-1.043772 13.338796-2.032286 29.228695-2.967588 47.671743-18.018376-0.206708-31.867802-0.312108-41.550325-0.312108-14.372336 0-30.461779 0.36532-48.270377 1.092891l-1.858324 37.981033 17.963117 0c5.308913 0 16.296151-0.155543 32.956599-0.468674l32.335453-0.781806c4.78805-0.103354 12.806677-0.520863 24.052812-1.251503-1.251503 15.423271-2.294252 31.365358-3.127224 47.828308-25.425066-0.207731-53.29788-0.312108-83.619466-0.312108l-68.77334 0.155543L376.459512 637.46041z" p-id="2446" fill="#707070"></path><path d="M629.705284 637.46041l-5.319146-28.758997c-1.25355-6.773264-3.181459-16.256242-5.786797-28.447912l-25.499767-116.756167-9.230222-39.388079c13.140275 0.209778 23.777543 0.313132 31.912827 0.313132 9.179057 0 19.814278-0.103354 31.91385-0.313132 2.813069 16.98586 5.054109 29.438473 6.725168 37.355793l13.141298 62.989613c2.710738 13.546527 5.734608 30.062689 9.073656 49.54644l5.14416-21.881356 18.561751-72.211649 12.789281-55.79884c14.274098 0.209778 26.361391 0.313132 36.262902 0.313132 10.730389 0 22.765493-0.103354 36.104289-0.313132l9.877975 65.802682 13.644765 83.778078 6.090718-22.977317c1.14508-3.958148 2.342348-7.970532 3.591805-12.035104 1.251503-4.064572 3.855818-12.136412 7.810896-24.225751l19.056008-60.019978 8.901741-30.321586c12.597923 0.105401 23.011086 0.156566 31.236422 0.156566 9.266038 0 19.628036-0.051165 31.080879-0.156566l-60.601216 181.621501-9.682523 31.728632c-15.632025-0.207731-29.284977-0.312108-40.955784-0.312108-12.300141 0-25.897833 0.104377-40.798195 0.312108l-3.590781-21.413706-13.730723-74.553996c-0.726547-4.479011-1.378393-9.090029-1.950422-13.833053-0.572028-4.740978-1.37737-12.113899-2.418073-22.116717l-5.473665 24.224728c-1.356904 5.420453-2.76395 10.892071-4.224208 16.411785l-25.179472 91.279936c-15.737426-0.207731-28.816303-0.312108-39.237653-0.312108C657.898393 637.149325 644.81747 637.252679 629.705284 637.46041z" p-id="2447" fill="#707070"></path></svg>