<?xml version="1.0" standalone="no"?><!DOCTYPE svg PUBLIC "-//W3C//DTD SVG 1.1//EN" "http://www.w3.org/Graphics/SVG/1.1/DTD/svg11.dtd"><svg t="1586797455443" class="icon" viewBox="0 0 1024 1024" version="1.1" xmlns="http://www.w3.org/2000/svg" p-id="5314" width="24" height="24" xmlns:xlink="http://www.w3.org/1999/xlink"><defs><style type="text/css"></style></defs><path d="M182.3744 665.6a51.2 51.2 0 0 0-49.664 38.7584l-51.2 204.8A51.2 51.2 0 0 0 131.1232 972.8h761.6512a51.2 51.2 0 0 0 49.664-63.6416l-51.2-204.8a51.2 51.2 0 0 0-49.664-38.7584H182.3744z m0-51.2h659.2512a102.4 102.4 0 0 1 99.328 77.568l51.2 204.8A102.4 102.4 0 0 1 892.8768 1024H131.1744a102.4 102.4 0 0 1-99.328-127.232l51.2-204.8A102.4 102.4 0 0 1 182.3232 614.4zM512 460.8a204.8 204.8 0 1 0 0-409.6 204.8 204.8 0 0 0 0 409.6z m0 51.2a256 256 0 1 1 0-512 256 256 0 0 1 0 512z" fill="#000000" p-id="5315"></path></svg>