<?xml version="1.0" standalone="no"?><!DOCTYPE svg PUBLIC "-//W3C//DTD SVG 1.1//EN" "http://www.w3.org/Graphics/SVG/1.1/DTD/svg11.dtd"><svg t="1587745242585" class="icon" viewBox="0 0 1024 1024" version="1.1" xmlns="http://www.w3.org/2000/svg" p-id="1923" width="20" height="20" xmlns:xlink="http://www.w3.org/1999/xlink"><defs><style type="text/css"></style></defs><path d="M505.152 909.44c0 48.704-70.08 87.68-155.968 87.68-85.888 0-155.968-38.976-155.968-87.68 0-48.768 70.08-87.808 155.968-87.808 85.888 0 156.608 39.68 155.968 87.744z m168.32-87.808c-85.888 0-155.968 39.04-155.968 87.744 0 48.768 70.08 87.744 155.968 87.744 85.888 0 155.968-38.976 155.968-87.68 0-48.064-69.376-87.808-155.968-87.808z" fill="#FFC716" p-id="1924"></path><path d="M856.192 488.768s-11.648-11.84-24.704-23.68V325.76c0-178.944-142.912-324.48-320.192-324.48S191.808 146.112 191.808 325.76v139.328c-13.056 11.84-24.704 23.68-24.704 23.68-20.608 32-70.08 114.176-70.08 191.488s20.608 90.56 28.8 91.264c7.616 0.64 34.368-7.04 65.984-56.448 43.328 145.6 169.728 251.456 319.488 251.456s276.928-105.856 320.192-251.456c32.32 50.176 59.072 57.856 66.624 57.152 7.552-0.704 28.864-13.952 28.864-91.264s-49.472-159.488-70.784-192.192z" fill="#37464F" p-id="1925"></path><path d="M276.352 544.448a392.256 392.256 0 0 0-3.456 57.152c0 176.896 108.544 321.024 243.2 321.024 134.72 0 243.2-143.488 243.2-321.024 0-18.816-1.28-38.336-3.392-57.152H276.352zM428.16 150.272c-35.008 0-64.576 39.68-64.576 88.448 0 48.768 28.864 88.448 64.64 88.448 35.712 0 64.512-39.68 64.512-88.448 0-48.704-29.504-88.448-64.576-88.448z m10.304 124.672c-13.056 0-23.36-16-23.36-36.224 0-20.16 10.304-36.224 23.36-36.224s23.36 16 23.36 36.224c0 19.52-10.24 36.224-23.36 36.224z m159.36-124.672c-35.008 0-64.512 39.68-64.512 88.448 0 48.768 28.8 88.448 64.576 88.448 35.712 0 64.64-39.68 64.64-88.448 0-48.704-28.928-88.448-64.64-88.448z m11.072 91.968c0 0.64-0.704 2.048-2.112 2.048-0.64 0-1.344-0.64-1.344-1.344a24.64 24.64 0 0 0-19.904-17.472 22.912 22.912 0 0 0-19.2 17.472c0 0.64-0.768 1.344-1.408 1.344-0.704 0-2.112-0.64-2.112-2.048V239.36c0-20.16 10.304-36.224 23.36-36.224s23.36 16 23.36 36.224v2.816h-0.64z" fill="#FFFFFF" p-id="1926"></path><path d="M258.496 527.04c-6.208 29.952-18.56 163.008-12.416 192.96 6.208 29.888 30.272 25.024 65.984 25.024 35.712 0.704 74.24 9.792 74.88-33.408 0.64-43.904 0.64-129.536 10.304-161.6 10.304-32-138.752-22.976-138.752-22.976z" fill="#FF3A2F" p-id="1927"></path><path d="M250.88 590.464l137.472 45.248c0-28.544 2.752-57.792 8.96-85.696 9.6-32-138.88-22.976-138.88-22.976-2.048 10.432-4.8 35.52-7.488 63.36z" fill="#DD2C00" p-id="1928"></path><path d="M512.64 450.432c107.2 0 194.496-39.68 194.496-64 0-18.88-87.296-37.632-194.432-37.632-107.2 0-194.432 17.408-194.432 37.568 0 23.68 87.232 64.064 194.432 64.064z" fill="#FFC716" p-id="1929"></path><path d="M514.752 474.88s123.008 1.28 221.952-41.152c98.88-42.496 97.536-47.36 108.544-47.36 10.944 0 23.36 16 28.8 43.904 5.504 27.84 11.712 50.816-11.648 64.768-23.36 13.888-173.824 103.744-343.552 103.744H510.72c-169.728 0-320.192-89.856-343.552-103.744C143.744 481.088 150.592 459.52 155.392 430.272c4.8-28.544 17.92-43.904 28.864-43.904 11.008 0 9.6 4.864 108.544 47.36 98.304 42.496 221.952 41.088 221.952 41.088z" fill="#FF3A2F" p-id="1930"></path></svg>