<?xml version="1.0" standalone="no"?><!DOCTYPE svg PUBLIC "-//W3C//DTD SVG 1.1//EN" "http://www.w3.org/Graphics/SVG/1.1/DTD/svg11.dtd"><svg t="1586192489259" class="icon" viewBox="0 0 1024 1024" version="1.1" xmlns="http://www.w3.org/2000/svg" p-id="1518" width="20" height="20" xmlns:xlink="http://www.w3.org/1999/xlink"><defs><style type="text/css"></style></defs><path d="M918.737608 365.155561c0 0-57.480132-300.156174-398.154116-300.156174S90.024339 325.857533 90.024339 496.443699s101.884458 429.995311 429.995311 429.995311c337.319585 0 398.717957-306.480206 398.717957-306.480206s4.3951-17.092283 19.971867-17.22736c19.596314-0.168846 14.937201 18.277272 14.937201 18.277272S902.381082 942.302303 519.144724 942.302303 72.377424 630.865201 72.377424 496.475422 135.02423 48.046273 518.694469 48.046273c308.968887 0 394.023028 212.199936 394.023028 212.199936l54.733579 0c0 0 20.189831-2.197038 14.049994 14.175861l-47.514153 89.901543C933.986917 364.324636 925.55999 377.775996 918.737608 365.155561z" p-id="1519"></path><path d="M945.379385 537.419949m-18.256806 0a17.841 17.841 0 1 0 36.513612 0 17.841 17.841 0 1 0-36.513612 0Z" p-id="1520"></path><path d="M398.134673 298.585399l-11.404748 26.155706 246.720148 0 0 2.612501L416.22775 732.74352l32.18298 0 219.901339-408.002414 0-26.155706L398.134673 298.585399z" p-id="1521"></path></svg>