<?xml version="1.0" standalone="no"?><!DOCTYPE svg PUBLIC "-//W3C//DTD SVG 1.1//EN" "http://www.w3.org/Graphics/SVG/1.1/DTD/svg11.dtd"><svg t="1586192464353" class="icon" viewBox="0 0 1024 1024" version="1.1" xmlns="http://www.w3.org/2000/svg" p-id="3361" width="20" height="20" xmlns:xlink="http://www.w3.org/1999/xlink"><defs><style type="text/css"></style></defs><path d="M131.337257 373.551788C168.499645 223.049029 263.614933 65.00041 528.790408 65.00041c340.67296 0 398.154116 300.156174 398.154116 300.156174 6.822382 12.620435 15.248286-0.830925 15.248286-0.830925l47.514153-89.901543c6.139837-16.372899-14.049994-14.175861-14.049994-14.175861l-54.733579 0c0 0-85.054141-212.199936-394.023028-212.199936-290.50742 0-396.965034 180.045609-431.53641 325.821717 0 0-4.185322 12.544711 7.135514 14.141068C129.10645 391.761522 131.337257 373.551788 131.337257 373.551788z" p-id="3362"></path><path d="M101.767801 450.554556m-18.256806 0a17.841 17.841 0 1 0 36.513612 0 17.841 17.841 0 1 0-36.513612 0Z" p-id="3363"></path><path d="M923.703713 616.451934C886.541325 766.954693 791.426037 925.004335 526.250562 925.004335c-340.67296 0-398.154116-300.156174-398.154116-300.156174-6.822382-12.620435-15.248286 0.830925-15.248286 0.830925l-47.514153 89.901543c-6.139837 16.372899 14.049994 14.175861 14.049994 14.175861l54.733579 0c0 0 85.054141 212.199936 394.023028 212.199936 290.50742 0 396.965034-180.045609 431.53641-325.821717 0 0 4.185322-12.544711-7.135514-14.141068C925.93452 598.243223 923.703713 616.451934 923.703713 616.451934z" p-id="3364"></path><path d="M952.692954 539.740808m-18.256806 0a17.841 17.841 0 1 0 36.513612 0 17.841 17.841 0 1 0-36.513612 0Z" p-id="3365"></path><path d="M395.764696 293.90582c-17.248849 0-36.404118 3.154853-57.458643 9.394974-17.975397 6.274914-32.973996 14.09195-44.99989 23.485901l9.29162 21.139459c12.024871-9.394974 25.394367-16.442484 40.031738-21.139459 16.355503-6.238075 32.392758-9.393951 48.061622-9.393951 29.726022 0 50.761104 7.851828 63.039755 23.485901 9.479909 12.550851 13.171997 28.183899 10.993378 46.972824-2.907213 25.065885-17.012466 45.432749-42.312688 61.066821-20.244067 12.550851-44.454468 18.788925-72.638367 18.788925l-30.532387 0-2.723018 23.486924 28.183899 0c34.422997 0 61.790298 7.045463 82.10088 21.137413 24.788569 15.670911 36.157501 39.155788 34.105772 70.460772-0.911766 7.853875-3.485381 16.440437-7.693216 25.835412-4.428869 10.971889-10.215666 20.366863-17.36039 28.183899-10.666944 10.971889-22.64065 19.59529-35.878139 25.834388-16.397459 6.274914-35.549657 9.394974-57.458643 9.394974-18.788925 0-37.216623-3.120061-55.277978-9.394974-15.125489-4.696975-27.004027-10.165524-35.671431-16.440437L237.101069 669.692508c8.483208 7.853875 21.044292 14.09195 37.747719 18.788925 19.60757 6.238075 39.610136 9.394974 59.977 9.394974 46.972824 0 84.423785-12.514012 112.396883-37.579897 26.027793-21.908986 40.856523-48.514947 44.48926-79.853699 2.90312-25.029046-3.946892-46.974871-20.557198-65.763796-15.069207-18.788925-35.616172-30.532387-61.678758-35.229362l0.273223-2.348488c52.088332-17.21201 80.693834-47.744397 85.779665-91.599208 2.90312-25.027-2.499937-46.166459-16.132422-63.413262C462.786135 303.300794 434.883645 293.90582 395.764696 293.90582zM795.427164 340.878644c-19.85521-31.302937-49.379641-46.972824-88.499613-46.972824-39.155788 0-73.173556 16.440437-102.014418 49.321312-16.092513 17.248849-28.745694 38.386262-37.887912 63.415308-12.483312 26.6428-20.721951 57.175187-24.713868 91.598184-6.085602 65.763796 2.104941 116.663046 24.572652 152.665005 19.85214 31.338752 47.764863 46.972824 83.802638 46.972824 92.369757 0 146.648988-69.653383 162.813133-209.032804C820.941258 424.660816 814.917054 375.337457 795.427164 340.878644zM782.420943 493.542626c-6.53688 56.368822-20.247136 100.221586-41.08779 131.525546-21.062711 32.880875-49.575092 49.321312-85.576027 49.321312-31.338752 0-54.461379-16.440437-69.437465-49.321312-14.97711-32.882921-18.518772-76.698846-10.584056-131.525546 6.17156-53.212946 20.562315-96.296183 43.165102-129.177058 22.418592-31.30396 49.26503-46.972824 80.605829-46.972824 34.422997 0 59.158355 16.440437 74.133418 49.321312C786.006608 394.898978 788.957823 437.174827 782.420943 493.542626z" p-id="3366"></path></svg>