<?xml version="1.0" standalone="no"?><!DOCTYPE svg PUBLIC "-//W3C//DTD SVG 1.1//EN" "http://www.w3.org/Graphics/SVG/1.1/DTD/svg11.dtd"><svg t="1586851307780" class="icon" viewBox="0 0 1024 1024" version="1.1" xmlns="http://www.w3.org/2000/svg" p-id="2166" width="22" height="22" xmlns:xlink="http://www.w3.org/1999/xlink"><defs><style type="text/css"></style></defs><path d="M752 96h-480c-70.4 0-128 57.6-128 128v630.4c0 17.6 4.8 35.2 14.4 49.6 27.2 44.8 86.4 59.2 131.2 32l208-126.4c9.6-6.4 22.4-6.4 33.6 0l201.6 124.8c14.4 9.6 32 14.4 49.6 14.4 52.8 0 96-43.2 96-96V224c1.6-70.4-56-128-126.4-128z m32 775.168a27.008 27.008 0 0 1-16-4.8l-201.6-124.8c-30.4-19.2-68.8-19.2-99.2 0l-208 126.4c-14.4 9.6-30.08 3.2-38.08-12.8a30.848 30.848 0 0 1-4.8-16l-0.128-601.344c0-35.2 23.68-62.4 58.88-62.4h480c35.2 0 64 28.8 64 64l0.128 599.68c-11.712 21.376-23.488 32-35.2 32zM640 288H384c-17.6 0-32 14.4-32 32s14.4 32 32 32h256c17.6 0 32-14.4 32-32s-14.4-32-32-32z" p-id="2167" fill="#e6e6e6"></path></svg>