<?xml version="1.0" standalone="no"?><!DOCTYPE svg PUBLIC "-//W3C//DTD SVG 1.1//EN" "http://www.w3.org/Graphics/SVG/1.1/DTD/svg11.dtd"><svg t="1585834295422" class="icon" viewBox="0 0 1024 1024" version="1.1" xmlns="http://www.w3.org/2000/svg" p-id="15109" width="16" height="16" xmlns:xlink="http://www.w3.org/1999/xlink"><defs><style type="text/css"></style></defs><path d="M507.392 896.341333c-165.376 0-307.541333-109.568-377.514667-174.933333-21.333333-19.968-33.450667-47.957333-33.450666-77.312s12.288-57.344 33.450666-77.312c69.973333-65.365333 212.138667-174.933333 377.514667-174.933333 164.864 0 306.688 109.056 376.490667 173.909333 21.674667 20.138667 34.133333 48.64 34.133333 78.165333s-12.458667 58.026667-34.133333 78.165334c-69.973333 65.194667-211.797333 174.250667-376.490667 174.250666z m0-436.224c-141.994667 0-268.288 98.133333-330.922667 156.501334-7.68 7.168-11.776 16.896-11.776 27.306666s4.266667 20.309333 11.776 27.306667c62.634667 58.538667 188.928 156.501333 330.922667 156.501333 141.482667 0 267.434667-97.450667 329.898667-155.648 8.021333-7.509333 12.458667-17.578667 12.458666-28.330666 0-10.752-4.437333-20.821333-12.458666-28.16-62.464-57.856-188.416-155.477333-329.898667-155.477334zM509.952 322.901333c-18.773333 0-34.133333-15.36-34.133333-34.133333V204.8c0-18.773333 15.36-34.133333 34.133333-34.133333s34.133333 15.36 34.133333 34.133333v83.968a34.133333 34.133333 0 0 1-34.133333 34.133333zM781.994667 391.850667a34.2016 34.2016 0 0 1-24.064-58.368l59.392-59.392c13.312-13.312 34.986667-13.312 48.298666 0s13.312 34.986667 0 48.298666l-59.392 59.392c-6.656 6.656-15.530667 10.069333-24.234666 10.069334zM237.738667 391.850667c-8.704 0-17.408-3.413333-24.064-10.069334l-59.392-59.392c-13.312-13.312-13.312-34.986667 0-48.298666s34.986667-13.312 48.298666 0l59.392 59.392a34.2016 34.2016 0 0 1-24.234666 58.368z" p-id="15110" fill="#707070"></path><path d="M521.728 747.690667c-78.165333 0-141.824-63.658667-141.824-141.824h68.266667a73.557333 73.557333 0 0 0 147.114666 0h68.266667c0 78.165333-63.658667 141.824-141.824 141.824z" p-id="15111" fill="#707070"></path></svg>